HIERARCHY
ROOT Hips
{
    OFFSET 0.0 0.0 0.0
    CHANNELS 6 Xposition Yposition Zposition Zrotation Xrotation Yrotation
    JOINT Spine
    {
        OFFSET 0.0 5.0 0.0
        CHANNELS 3 Zrotation Xrotation Yrotation
        JOINT Chest
        {
            OFFSET 0.0 5.0 0.0
            CHANNELS 3 Zrotation Xrotation Yrotation
            JOINT Neck
            {
                OFFSET 0.0 8.0 0.0
                CHANNELS 3 Zrotation Xrotation Yrotation
                JOINT Head
                {
                    OFFSET 0.0 5.0 0.0
                    CHANNELS 3 Zrotation Xrotation Yrotation
                    End Site
                    {
                        OFFSET 0.0 3.0 0.0
                    }
                }
            }
            JOINT LeftShoulder
            {
                OFFSET -5.0 0.0 0.0
                CHANNELS 3 Zrotation Xrotation Yrotation
                JOINT LeftArm
                {
                    OFFSET 0.0 -10.0 0.0
                    CHANNELS 3 Zrotation Xrotation Yrotation
                    JOINT LeftForeArm
                    {
                        OFFSET 0.0 -10.0 0.0
                        CHANNELS 3 Zrotation Xrotation Yrotation
                        End Site
                        {
                            OFFSET 0.0 -3.0 0.0
                        }
                    }
                }
            }
        }
    }
}

MOTION
Frames: 40
Frame Time: 0.033333
970.000000 442.938926 143.534969 0.000000 0.000000 0.000000 0.000000 0.000000 0.000000 29.678605 -17.756239 0.000000 180.000000 5.114844 0.000000 29.744881 -1.391410 -0.000000 150.255119 -0.962651 30.000000 19.983107 5.622652 0.000000 18.000000 -0.070002 0.000000
1354.522934 467.411410 123.063694 0.000000 0.000000 0.000000 0.000000 0.000000 0.000000 150.622570 -8.780214 4.973798 -29.377430 4.525849 4.973798 140.176400 2.742910 3.759997 -12.221629 3.213637 29.763441 132.794256 -0.013753 -3.759997 -2.626015 0.108810 0.313953
969.997807 442.887864 123.406676 0.000000 0.000000 0.000000 0.000000 0.000000 0.000000 31.061399 -8.096611 9.635073 180.000000 11.056442 9.635073 30.285790 -11.029244 7.460697 149.714210 -1.842825 29.057495 19.151579 -3.257977 -7.460697 18.000000 0.179940 0.626666
1246.736984 514.278152 107.458743 0.000000 0.000000 0.000000 0.000000 0.000000 0.000000 143.557092 -24.997127 13.690942 -36.442908 5.370921 13.690942 133.761037 1.525922 11.043737 -156.950665 -4.627405 27.893295 0.000000 0.000000 0.000000 1.928484 0.427937 0.936907
1245.221100 458.637464 132.599470 0.000000 0.000000 0.000000 0.000000 0.000000 0.000000 160.701064 22.727647 16.886559 -19.298936 -10.471050 16.886559 140.193827 -3.383628 14.452610 -157.554825 -6.245723 26.289200 29.500467 5.399101 -14.452610 -15.049953 -0.539910 1.243449
1257.365570 418.514181 104.220939 0.000000 0.000000 0.000000 0.000000 0.000000 0.000000 -143.710676 -17.513249 19.021130 36.289324 3.203311 19.021130 163.220413 1.912242 17.633558 11.688054 -0.359399 24.270510 152.038385 1.359284 -17.633558 -2.339948 -0.023406 1.545085
1275.099564 408.163741 112.989925 0.000000 0.000000 0.000000 0.000000 0.000000 0.000000 -132.929531 -4.057275 19.960535 47.070469 -6.828395 19.960535 173.491912 5.006865 20.536413 -160.709681 -4.982953 21.869059 33.138793 6.023283 -20.536413 -14.686121 -0.602328 1.840623
1290.611115 384.880857 83.893049 0.000000 0.000000 0.000000 0.000000 0.000000 0.000000 -132.705235 1.602510 19.645745 47.294765 -3.484295 19.645745 -173.778854 -6.769634 23.115397 20.496835 0.257464 19.122720 -161.220290 -4.517705 -23.115397 1.723235 0.364752 2.128896
1302.817154 380.305352 90.236335 0.000000 0.000000 0.000000 0.000000 0.000000 0.000000 -131.493915 0.533010 18.096541 48.506085 6.247005 18.096541 -165.393697 -3.842083 25.329838 23.154815 2.517245 16.074804 -178.200316 -0.048819 -25.329838 0.138141 0.150967 2.408768
1304.997711 379.563582 100.880034 0.000000 0.000000 0.000000 0.000000 0.000000 0.000000 -126.727972 -4.956487 15.410265 53.272028 -0.780464 15.410265 -160.219593 0.264770 27.144812 28.448880 4.623201 12.773379 -174.368770 -1.911349 -27.144812 0.079526 0.050990 2.679134
1311.668472 386.890390 61.387115 0.000000 0.000000 0.000000 0.000000 0.000000 0.000000 -122.308728 -2.295532 11.755705 57.691272 -8.023821 11.755705 -158.801130 -0.490538 28.531695 150.942637 -3.841884 9.270510 -154.878332 -3.952817 -28.531695 2.695409 0.464449 2.938926
1305.131836 395.180186 88.526643 0.000000 0.000000 0.000000 0.000000 0.000000 0.000000 -125.112810 -0.385216 7.362491 54.887190 -5.509936 7.362491 -146.487292 3.815069 29.468618 -175.167369 1.121176 5.621439 -159.224034 -4.047229 -29.468618 1.782042 0.394680 3.187120
1296.320457 392.734526 69.894273 0.000000 0.000000 0.000000 0.000000 0.000000 0.000000 -131.035750 13.520081 2.506665 48.964250 -10.931935 2.506665 -128.969563 1.975815 29.940802 38.856147 -4.262342 1.883716 -134.776850 -1.161622 -29.940802 3.458429 0.102869 3.422736
1306.963577 386.612041 70.561996 0.000000 0.000000 0.000000 0.000000 0.000000 0.000000 -124.469622 -0.976272 -2.506665 55.530378 2.621617 -2.506665 -109.994856 -2.201060 29.940802 37.691309 3.391340 -1.883716 -118.274788 -2.938419 -29.940802 5.098336 0.148798 3.644843
969.892723 442.572198 67.820763 0.000000 0.000000 0.000000 0.000000 0.000000 0.000000 41.287575 -28.821294 -7.362491 180.000000 5.157113 -7.362491 30.974696 -11.730352 29.468618 149.025304 -16.528528 -5.621439 15.072869 5.145903 -29.468618 18.000000 0.082081 3.852566
969.876883 442.545207 71.159909 0.000000 0.000000 0.000000 0.000000 0.000000 0.000000 42.241956 35.524465 -11.755705 180.000000 20.155664 -11.755705 30.826133 -30.119511 28.531695 149.173867 -11.242894 -9.270510 14.823070 1.502493 -28.531695 18.000000 -0.475533 4.045085
969.859960 442.518116 49.335555 0.000000 0.000000 0.000000 0.000000 0.000000 0.000000 43.199779 47.046469 -15.410265 180.000000 -20.531800 -15.410265 30.649504 -6.503205 27.144812 149.350496 -15.927373 -12.773379 14.587557 -8.318480 -27.144812 18.000000 0.808766 4.221640
969.841956 442.490926 73.583610 0.000000 0.000000 0.000000 0.000000 0.000000 0.000000 44.157210 -44.745858 -18.096541 180.000000 20.910114 -18.096541 30.446417 -2.971905 25.329838 149.553583 9.141316 -16.074804 14.366154 1.503851 -25.329838 18.000000 -0.316093 4.381533
969.822873 442.463637 45.839668 0.000000 0.000000 0.000000 0.000000 0.000000 0.000000 45.110117 -45.863552 -19.645745 180.000000 5.361723 -19.645745 30.218633 0.032710 23.115397 149.781367 4.399628 -19.122720 14.158653 -1.374866 -23.115397 18.000000 0.168989 4.524135
969.802712 442.436251 52.803715 0.000000 0.000000 0.000000 0.000000 0.000000 0.000000 46.054109 2.675449 -19.960535 180.000000 3.060927 -19.960535 29.968037 -15.284716 20.536413 150.031963 -12.071179 -21.869059 13.964823 -2.567696 -20.536413 18.000000 -0.000194 4.648882
1187.040939 541.658249 45.892528 0.000000 0.000000 0.000000 0.000000 0.000000 0.000000 82.806623 -13.570145 -19.021130 -97.193377 26.033108 -19.021130 45.395981 10.613479 17.633558 -156.144455 -1.872229 -24.270510 0.000000 0.000000 0.000000 0.000000 0.000000 0.000000
1182.242889 522.024286 52.328687 0.000000 0.000000 0.000000 0.000000 0.000000 0.000000 -105.721938 1.344758 -16.886559 74.278062 9.632579 -16.886559 -155.708006 -2.302353 14.452610 -157.302521 -2.002396 -26.289200 0.000000 0.000000 0.000000 2.684983 0.225346 4.842916
1180.914459 527.065626 46.381686 0.000000 0.000000 0.000000 0.000000 0.000000 0.000000 88.055617 -3.628339 -13.690942 -91.944383 7.168754 -13.690942 -158.862018 -2.363255 11.043737 -151.747289 -1.251142 -27.893295 0.000000 0.000000 0.000000 0.000000 0.000000 0.000000
1236.800194 541.387432 46.938534 0.000000 0.000000 0.000000 0.000000 0.000000 0.000000 -85.588400 9.307039 -9.635073 94.411600 8.396314 -9.635073 -159.297106 -13.300654 7.460697 -157.915391 -2.860405 -29.057495 26.607362 2.610173 -7.460697 14.926890 0.306068 4.960574
1161.066513 575.006626 41.272323 0.000000 0.000000 0.000000 0.000000 0.000000 0.000000 -81.021168 -20.717362 -4.973798 98.978832 23.206130 -4.973798 -102.851701 -12.186582 3.759997 -157.041007 -1.505022 -29.763441 21.429890 2.119143 -3.759997 10.859432 -0.068832 4.990134
1255.636253 512.645942 55.718340 0.000000 0.000000 0.000000 0.000000 0.000000 0.000000 77.832564 2.187521 -0.000000 -102.167436 -3.781526 -0.000000 -158.264834 -2.530972 0.000000 -130.745502 -4.030466 -30.000000 -157.699225 -2.447908 -0.000000 0.000000 0.000000 0.000000
1265.118484 521.473864 57.953858 0.000000 0.000000 0.000000 0.000000 0.000000 0.000000 64.078276 -1.230160 4.973798 -115.921724 -11.233452 4.973798 41.397952 9.753614 -3.759997 -139.329851 0.020557 -29.763441 20.223252 0.404178 3.759997 -16.047574 -0.100056 4.990134
1228.099480 522.138258 51.060889 0.000000 0.000000 0.000000 0.000000 0.000000 0.000000 71.050901 -6.346691 9.635073 -108.949099 -0.517541 9.635073 150.099970 12.040963 -7.460697 -139.894702 4.021644 -29.057495 -156.275691 -3.618290 7.460697 0.000000 0.000000 0.000000
1240.357246 528.695873 63.402391 0.000000 0.000000 0.000000 0.000000 0.000000 0.000000 65.413351 8.063979 13.690942 -114.586649 -2.420343 13.690942 147.242328 -1.582830 -11.043737 -154.470720 -2.358745 -27.893295 25.557225 2.674042 11.043737 -15.444278 -0.267404 4.911436
1231.815262 551.380248 53.825176 0.000000 0.000000 0.000000 0.000000 0.000000 0.000000 56.412506 -12.253588 16.886559 -123.587494 20.009277 16.886559 -153.392336 1.598592 -14.452610 -154.784582 -1.795749 -26.289200 24.191555 3.475649 14.452610 -15.580844 -0.347565 4.842916
1221.475182 508.360147 65.087299 0.000000 0.000000 0.000000 0.000000 0.000000 0.000000 77.450622 4.706235 19.021130 -102.549378 0.338631 19.021130 -156.789784 -2.935540 -17.633558 -125.590168 0.291574 -24.270510 -160.017240 -3.437878 17.633558 1.833434 0.457212 4.755283
969.477684 442.100429 74.475038 0.000000 0.000000 0.000000 0.000000 0.000000 0.000000 54.932575 -31.678711 19.960535 180.000000 7.692654 19.960535 25.919122 -6.621224 -20.536413 154.080878 1.643000 -21.869059 12.612867 -2.516213 20.536413 18.000000 0.258356 4.648882
1480.140495 518.878891 73.341729 0.000000 0.000000 0.000000 0.000000 0.000000 0.000000 -110.621767 88.263029 19.645745 69.378233 -87.423556 19.645745 -158.235933 -2.470712 -23.115397 166.031448 -0.607916 -19.122720 -155.186432 -3.223018 23.115397 2.641553 0.276280 4.524135
1271.640472 556.840560 84.531904 0.000000 0.000000 0.000000 0.000000 0.000000 0.000000 -94.404719 -15.102031 18.096541 85.595281 16.475737 18.096541 -62.417786 -1.284577 -25.329838 23.992813 -1.968370 -16.074804 -76.856107 -0.047190 25.329838 7.708835 0.436394 4.381533
1258.556786 530.268441 88.532159 0.000000 0.000000 0.000000 0.000000 0.000000 0.000000 78.355945 -0.682161 15.410265 -101.644055 8.785756 15.410265 35.068294 -7.540941 -27.144812 -54.090640 0.378112 -12.773379 35.848220 0.010519 27.144812 -8.104639 0.295614 4.221640
1250.800209 527.150567 95.222182 0.000000 0.000000 0.000000 0.000000 0.000000 0.000000 72.417769 3.093687 11.755705 -107.582231 -9.604885 11.755705 24.571109 1.838429 -28.531695 -39.196117 2.716576 -9.270510 10.411117 -4.169029 28.531695 -9.048616 -1.321125 4.045085
1243.466148 571.776259 82.174013 0.000000 0.000000 0.000000 0.000000 0.000000 0.000000 86.301473 -6.857020 7.362491 -93.698527 17.408104 7.362491 24.553534 -5.382488 -29.468618 -153.460385 -4.052004 -5.621439 19.510484 3.383219 29.468618 -10.109500 1.592770 3.852566
1261.883812 566.052918 90.602613 0.000000 0.000000 0.000000 0.000000 0.000000 0.000000 94.015209 4.430904 2.506665 -85.984791 -12.896879 2.506665 38.959993 3.720224 -29.940802 -154.008305 -4.616830 -1.883716 20.870951 3.670819 29.940802 -10.872440 -3.563744 3.644843
1284.436798 527.190542 82.903432 0.000000 0.000000 0.000000 0.000000 0.000000 0.000000 111.186365 -0.352525 -2.506665 -68.813635 -5.425687 -2.506665 58.506163 1.642354 -29.940802 -19.138727 1.795469 1.883716 51.457372 -0.924898 29.940802 -5.203198 -0.579649 3.422736
1272.860069 533.494012 99.923032 0.000000 0.000000 0.000000 0.000000 0.000000 0.000000 72.301471 7.083059 -7.362491 -107.698529 16.152232 -7.362491 78.802573 -1.844063 -29.468618 -154.772375 -4.641487 5.621439 26.927455 3.542405 29.468618 -15.307255 -0.354241 3.187120
